<?xml version="1.0" standalone="no"?>
<!DOCTYPE svg PUBLIC "-//W3C//DTD SVG 20010904//EN"
 "http://www.w3.org/TR/2001/REC-SVG-20010904/DTD/svg10.dtd">
<svg version="1.0" xmlns="http://www.w3.org/2000/svg"
 width="152.000000pt" height="152.000000pt" viewBox="0 0 152.000000 152.000000"
 preserveAspectRatio="xMidYMid meet">
<metadata>
Created by potrace 1.14, written by Peter Selinger 2001-2017
</metadata>
<g transform="translate(0.000000,152.000000) scale(0.100000,-0.100000)"
fill="#000000" stroke="none">
<path d="M10 1435 l0 -85 665 0 665 0 0 -525 0 -525 90 0 90 0 0 610 0 610
-755 0 -755 0 0 -85z"/>
<path d="M10 605 l0 -605 755 0 755 0 0 90 0 90 -665 0 -665 0 0 515 0 515
-90 0 -90 0 0 -605z"/>
<path d="M300 1110 l0 -100 380 0 380 0 0 -85 0 -85 -380 0 -380 0 0 -270 0
-270 465 0 465 0 0 95 0 95 -380 0 -380 0 0 90 0 90 380 0 380 0 0 270 0 270
-465 0 -465 0 0 -100z"/>
</g>
</svg>
