<?xml version="1.0" standalone="no"?>
<!DOCTYPE svg PUBLIC "-//W3C//DTD SVG 20010904//EN"
 "http://www.w3.org/TR/2001/REC-SVG-20010904/DTD/svg10.dtd">
<svg version="1.0" xmlns="http://www.w3.org/2000/svg"
 width="320.000000pt" height="320.000000pt" viewBox="0 0 320.000000 320.000000"
 preserveAspectRatio="xMidYMid meet">
<metadata>
Created by potrace 1.14, written by Peter Selinger 2001-2017
</metadata>
<g transform="translate(0.000000,320.000000) scale(0.100000,-0.100000)"
fill="#000000" stroke="none">
<path d="M1380 3174 c-171 -27 -370 -90 -505 -162 -59 -32 -188 -112 -195
-122 -3 -4 -12 -11 -21 -16 -97 -54 -292 -264 -392 -421 -81 -126 -178 -352
-202 -470 -30 -141 -36 -199 -40 -338 -7 -269 40 -492 152 -725 48 -98 129
-232 144 -238 5 -2 9 -8 9 -14 0 -24 160 -196 260 -280 68 -57 248 -178 265
-178 7 0 18 -7 25 -15 6 -8 15 -14 18 -12 4 1 33 -11 65 -26 82 -39 222 -83
345 -109 84 -17 143 -22 277 -22 185 -1 248 5 370 34 648 154 1119 664 1219
1320 9 63 13 148 11 255 -4 164 -7 193 -26 280 -6 28 -13 60 -15 73 -17 88
-100 289 -171 417 -33 60 -103 159 -115 163 -4 2 -8 8 -8 13 0 19 -136 161
-232 242 -70 59 -184 137 -230 158 -16 7 -28 16 -28 21 0 4 -4 8 -9 8 -5 0
-40 14 -78 31 -132 59 -198 82 -314 109 -126 28 -147 31 -324 35 -108 2 -191
-2 -255 -11z"/>
</g>
</svg>
